<?xml version="1.0" encoding="UTF-8" standalone="no"?>
<!DOCTYPE svg PUBLIC "-//W3C//DTD SVG 1.1//EN"
 "http://www.w3.org/Graphics/SVG/1.1/DTD/svg11.dtd">
<!-- Generated by graphviz version 2.40.1 (20161225.0304)
 -->
<!-- Title: graphile_worker.known_crontabs Pages: 1 -->
<svg width="505pt" height="225pt"
 viewBox="0.00 0.00 505.00 225.00" xmlns="http://www.w3.org/2000/svg" xmlns:xlink="http://www.w3.org/1999/xlink">
<g id="graph0" class="graph" transform="scale(1 1) rotate(0) translate(4 221)">
<title>graphile_worker.known_crontabs</title>
<polygon fill="#ffffff" stroke="transparent" points="-4,4 -4,-221 501,-221 501,4 -4,4"/>
<!-- graphile_worker.known_crontabs -->
<g id="node1" class="node">
<title>graphile_worker.known_crontabs</title>
<polygon fill="#efefef" stroke="transparent" points="46.5,-135.5 46.5,-170.5 451.5,-170.5 451.5,-135.5 46.5,-135.5"/>
<polygon fill="none" stroke="#000000" points="46.5,-135.5 46.5,-170.5 451.5,-170.5 451.5,-135.5 46.5,-135.5"/>
<text text-anchor="start" x="53.1914" y="-148.3" font-family="Arial Bold" font-size="18.00" fill="#000000">graphile_worker.known_crontabs</text>
<text text-anchor="start" x="317.2406" y="-148.3" font-family="Arial" font-size="14.00" fill="#000000">    </text>
<text text-anchor="start" x="351.4454" y="-148.3" font-family="Arial" font-size="14.00" fill="#666666">[BASE TABLE]</text>
<polygon fill="none" stroke="#000000" points="46.5,-105.5 46.5,-135.5 451.5,-135.5 451.5,-105.5 46.5,-105.5"/>
<text text-anchor="start" x="53.5" y="-116.9" font-family="Arial" font-size="14.00" fill="#000000">identifier </text>
<text text-anchor="start" x="110.2826" y="-116.9" font-family="Arial" font-size="14.00" fill="#666666">[text]</text>
<polygon fill="none" stroke="#000000" points="46.5,-75.5 46.5,-105.5 451.5,-105.5 451.5,-75.5 46.5,-75.5"/>
<text text-anchor="start" x="53.5" y="-86.9" font-family="Arial" font-size="14.00" fill="#000000">known_since </text>
<text text-anchor="start" x="138.2994" y="-86.9" font-family="Arial" font-size="14.00" fill="#666666">[timestamp with time zone]</text>
<polygon fill="none" stroke="#000000" points="46.5,-45.5 46.5,-75.5 451.5,-75.5 451.5,-45.5 46.5,-45.5"/>
<text text-anchor="start" x="53.5" y="-56.9" font-family="Arial" font-size="14.00" fill="#000000">last_execution </text>
<text text-anchor="start" x="146.8632" y="-56.9" font-family="Arial" font-size="14.00" fill="#666666">[timestamp with time zone]</text>
<polygon fill="none" stroke="#000000" stroke-width="3" points="44.5,-44.5 44.5,-172.5 452.5,-172.5 452.5,-44.5 44.5,-44.5"/>
</g>
</g>
</svg>
