<?xml version="1.0" encoding="UTF-8" standalone="no"?>
<!DOCTYPE svg PUBLIC "-//W3C//DTD SVG 1.1//EN"
 "http://www.w3.org/Graphics/SVG/1.1/DTD/svg11.dtd">
<!-- Generated by graphviz version 2.40.1 (20161225.0304)
 -->
<!-- Title: app Pages: 1 -->
<svg width="868pt" height="369pt"
 viewBox="0.00 0.00 868.00 369.00" xmlns="http://www.w3.org/2000/svg" xmlns:xlink="http://www.w3.org/1999/xlink">
<g id="graph0" class="graph" transform="scale(1 1) rotate(0) translate(4 365)">
<title>app</title>
<polygon fill="#ffffff" stroke="transparent" points="-4,4 -4,-365 864,-365 864,4 -4,4"/>
<!-- public._prisma_migrations -->
<g id="node1" class="node">
<title>public._prisma_migrations</title>
<polygon fill="#efefef" stroke="transparent" points="43,-282.5 43,-317.5 393,-317.5 393,-282.5 43,-282.5"/>
<polygon fill="none" stroke="#000000" points="43,-282.5 43,-317.5 393,-317.5 393,-282.5 43,-282.5"/>
<text text-anchor="start" x="49.7098" y="-295.3" font-family="Arial Bold" font-size="18.00" fill="#000000">public._prisma_migrations</text>
<text text-anchor="start" x="258.7222" y="-295.3" font-family="Arial" font-size="14.00" fill="#000000">    </text>
<text text-anchor="start" x="292.927" y="-295.3" font-family="Arial" font-size="14.00" fill="#666666">[BASE TABLE]</text>
<polygon fill="none" stroke="#000000" points="43,-252.5 43,-282.5 393,-282.5 393,-252.5 43,-252.5"/>
<text text-anchor="start" x="50" y="-263.9" font-family="Arial" font-size="14.00" fill="#000000">id    </text>
<text text-anchor="start" x="95.094" y="-263.9" font-family="Arial" font-size="14.00" fill="#666666">[varchar(36)]</text>
<polygon fill="none" stroke="#000000" points="43,-222.5 43,-252.5 393,-252.5 393,-222.5 43,-222.5"/>
<text text-anchor="start" x="50" y="-233.9" font-family="Arial" font-size="14.00" fill="#000000">checksum    </text>
<text text-anchor="start" x="147.2132" y="-233.9" font-family="Arial" font-size="14.00" fill="#666666">[varchar(64)]</text>
<polygon fill="none" stroke="#000000" points="43,-192.5 43,-222.5 393,-222.5 393,-192.5 43,-192.5"/>
<text text-anchor="start" x="50" y="-203.9" font-family="Arial" font-size="14.00" fill="#000000">finished_at    </text>
<text text-anchor="start" x="151.8948" y="-203.9" font-family="Arial" font-size="14.00" fill="#666666">[timestamp with time zone]</text>
<polygon fill="none" stroke="#000000" points="43,-162.5 43,-192.5 393,-192.5 393,-162.5 43,-162.5"/>
<text text-anchor="start" x="50" y="-173.9" font-family="Arial" font-size="14.00" fill="#000000">migration_name    </text>
<text text-anchor="start" x="184.5512" y="-173.9" font-family="Arial" font-size="14.00" fill="#666666">[varchar(255)]</text>
<polygon fill="none" stroke="#000000" points="43,-132.5 43,-162.5 393,-162.5 393,-132.5 43,-132.5"/>
<text text-anchor="start" x="50" y="-143.9" font-family="Arial" font-size="14.00" fill="#000000">logs    </text>
<text text-anchor="start" x="109.8766" y="-143.9" font-family="Arial" font-size="14.00" fill="#666666">[text]</text>
<polygon fill="none" stroke="#000000" points="43,-102.5 43,-132.5 393,-132.5 393,-102.5 43,-102.5"/>
<text text-anchor="start" x="50" y="-113.9" font-family="Arial" font-size="14.00" fill="#000000">rolled_back_at    </text>
<text text-anchor="start" x="175.23" y="-113.9" font-family="Arial" font-size="14.00" fill="#666666">[timestamp with time zone]</text>
<polygon fill="none" stroke="#000000" points="43,-72.5 43,-102.5 393,-102.5 393,-72.5 43,-72.5"/>
<text text-anchor="start" x="50" y="-83.9" font-family="Arial" font-size="14.00" fill="#000000">started_at    </text>
<text text-anchor="start" x="146.4502" y="-83.9" font-family="Arial" font-size="14.00" fill="#666666">[timestamp with time zone]</text>
<polygon fill="none" stroke="#000000" points="43,-42.5 43,-72.5 393,-72.5 393,-42.5 43,-42.5"/>
<text text-anchor="start" x="50" y="-53.9" font-family="Arial" font-size="14.00" fill="#000000">applied_steps_count    </text>
<text text-anchor="start" x="212.5904" y="-53.9" font-family="Arial" font-size="14.00" fill="#666666">[integer]</text>
</g>
<!-- public.UploadedImage -->
<g id="node2" class="node">
<title>public.UploadedImage</title>
<polygon fill="#efefef" stroke="transparent" points="497,-207.5 497,-242.5 817,-242.5 817,-207.5 497,-207.5"/>
<polygon fill="none" stroke="#000000" points="497,-207.5 497,-242.5 817,-242.5 817,-207.5 497,-207.5"/>
<text text-anchor="start" x="503.6921" y="-220.3" font-family="Arial Bold" font-size="18.00" fill="#000000">public.UploadedImage</text>
<text text-anchor="start" x="682.7399" y="-220.3" font-family="Arial" font-size="14.00" fill="#000000">    </text>
<text text-anchor="start" x="716.9447" y="-220.3" font-family="Arial" font-size="14.00" fill="#666666">[BASE TABLE]</text>
<polygon fill="none" stroke="#000000" points="497,-177.5 497,-207.5 817,-207.5 817,-177.5 497,-177.5"/>
<text text-anchor="start" x="504" y="-188.9" font-family="Arial" font-size="14.00" fill="#000000">id    </text>
<text text-anchor="start" x="549.094" y="-188.9" font-family="Arial" font-size="14.00" fill="#666666">[text]</text>
<polygon fill="none" stroke="#000000" points="497,-147.5 497,-177.5 817,-177.5 817,-147.5 497,-147.5"/>
<text text-anchor="start" x="504" y="-158.9" font-family="Arial" font-size="14.00" fill="#000000">path    </text>
<text text-anchor="start" x="565.4432" y="-158.9" font-family="Arial" font-size="14.00" fill="#666666">[text]</text>
<polygon fill="none" stroke="#000000" points="497,-117.5 497,-147.5 817,-147.5 817,-117.5 497,-117.5"/>
<text text-anchor="start" x="504" y="-128.9" font-family="Arial" font-size="14.00" fill="#000000">createdAt    </text>
<text text-anchor="start" x="598.1136" y="-128.9" font-family="Arial" font-size="14.00" fill="#666666">[timestamp(3) without time zone]</text>
</g>
</g>
</svg>
