<?xml version="1.0" encoding="UTF-8" standalone="no"?>
<!DOCTYPE svg PUBLIC "-//W3C//DTD SVG 1.1//EN"
 "http://www.w3.org/Graphics/SVG/1.1/DTD/svg11.dtd">
<!-- Generated by graphviz version 2.40.1 (20161225.0304)
 -->
<!-- Title: graphile_worker.migrations Pages: 1 -->
<svg width="457pt" height="195pt"
 viewBox="0.00 0.00 457.00 195.00" xmlns="http://www.w3.org/2000/svg" xmlns:xlink="http://www.w3.org/1999/xlink">
<g id="graph0" class="graph" transform="scale(1 1) rotate(0) translate(4 191)">
<title>graphile_worker.migrations</title>
<polygon fill="#ffffff" stroke="transparent" points="-4,4 -4,-191 453,-191 453,4 -4,4"/>
<!-- graphile_worker.migrations -->
<g id="node1" class="node">
<title>graphile_worker.migrations</title>
<polygon fill="#efefef" stroke="transparent" points="46.5,-105.5 46.5,-140.5 403.5,-140.5 403.5,-105.5 46.5,-105.5"/>
<polygon fill="none" stroke="#000000" points="46.5,-105.5 46.5,-140.5 403.5,-140.5 403.5,-105.5 46.5,-105.5"/>
<text text-anchor="start" x="53.2106" y="-118.3" font-family="Arial Bold" font-size="18.00" fill="#000000">graphile_worker.migrations</text>
<text text-anchor="start" x="269.2214" y="-118.3" font-family="Arial" font-size="14.00" fill="#000000">    </text>
<text text-anchor="start" x="303.4262" y="-118.3" font-family="Arial" font-size="14.00" fill="#666666">[BASE TABLE]</text>
<polygon fill="none" stroke="#000000" points="46.5,-75.5 46.5,-105.5 403.5,-105.5 403.5,-75.5 46.5,-75.5"/>
<text text-anchor="start" x="53.5" y="-86.9" font-family="Arial" font-size="14.00" fill="#000000">id </text>
<text text-anchor="start" x="68.2798" y="-86.9" font-family="Arial" font-size="14.00" fill="#666666">[integer]</text>
<polygon fill="none" stroke="#000000" points="46.5,-45.5 46.5,-75.5 403.5,-75.5 403.5,-45.5 46.5,-45.5"/>
<text text-anchor="start" x="53.5" y="-56.9" font-family="Arial" font-size="14.00" fill="#000000">ts </text>
<text text-anchor="start" x="68.2812" y="-56.9" font-family="Arial" font-size="14.00" fill="#666666">[timestamp with time zone]</text>
<polygon fill="none" stroke="#000000" stroke-width="3" points="44.5,-44.5 44.5,-142.5 404.5,-142.5 404.5,-44.5 44.5,-44.5"/>
</g>
</g>
</svg>
